<svg xmlns="http://www.w3.org/2000/svg" aria-hidden="true" style="width:0;height:0;position:absolute;overflow:hidden"><defs><symbol id="icon-search" viewBox="0 0 32 32"><path stroke="#fff" stroke-linecap="round" stroke-linejoin="round" stroke-width="2.667" d="M14.667 25.333c5.891 0 10.667-4.776 10.667-10.667S20.558 3.999 14.667 3.999 4 8.775 4 14.666s4.776 10.667 10.667 10.667z" style="stroke:var(--color1,#fff)"/><path fill="none" stroke="#fff" stroke-linecap="round" stroke-linejoin="round" stroke-width="2.667" d="m28 28.001-5.8-5.8" style="stroke:var(--color1,#fff)"/></symbol><symbol id="icon-film" viewBox="0 0 32 32"><path stroke="#fff" stroke-linecap="round" stroke-linejoin="round" stroke-width="2.667" d="M26.427 2.667H5.574a2.907 2.907 0 0 0-2.907 2.907v20.853a2.907 2.907 0 0 0 2.907 2.907h20.853a2.907 2.907 0 0 0 2.907-2.907V5.574a2.907 2.907 0 0 0-2.907-2.907zm-17.094 0v26.667M22.667 2.667v26.667M2.667 16h26.667M2.667 9.333h6.667M2.667 22.667h6.667m13.333 0h6.667M22.667 9.333h6.667" style="stroke:var(--color1,#fff)"/></symbol><symbol id="icon-favorite" viewBox="0 0 32 32"><path d="m16 30.583-2.24-2.24C5.44 20.983 0 16.023 0 9.943c0-4.96 3.84-8.8 8.8-8.8 2.72 0 5.44 1.28 7.2 3.36 1.76-2.08 4.48-3.36 7.2-3.36 4.96 0 8.8 3.84 8.8 8.8 0 6.08-5.44 11.04-13.76 18.4L16 30.583z" style="fill:var(--color2,#ff6b08)"/></symbol><symbol id="icon-close" viewBox="0 0 32 32"><path stroke-width="2.133" d="m8.533 8.533 14.933 14.933m-14.933.001L23.466 8.534"/></symbol><symbol id="icon-arrow-right" viewBox="0 0 32 32"><path stroke-linecap="round" stroke-linejoin="round" stroke-width="2.667" d="M6.667 16h18.667M16 25.334l9.333-9.333L16 6.668"/></symbol><symbol id="icon-arrow-left" viewBox="0 0 32 32"><path stroke-linecap="round" stroke-linejoin="round" stroke-width="2.667" d="M25.333 16H6.666M16 25.334l-9.333-9.333L16 6.668"/></symbol><symbol id="icon-linkedin" viewBox="0 0 32 32"><path d="M31.992 32v-.001H32V20.263c0-5.741-1.236-10.164-7.948-10.164-3.227 0-5.392 1.771-6.276 3.449h-.093v-2.913h-6.364v21.364h6.627V21.42c0-2.785.528-5.479 3.977-5.479 3.399 0 3.449 3.179 3.449 5.657v10.401h6.62zM.528 10.636h6.635V32H.528V10.636zM3.843 0C1.722 0 0 1.721 0 3.843s1.721 3.879 3.843 3.879c2.121 0 3.843-1.757 3.843-3.879A3.846 3.846 0 0 0 3.843 0z"/></symbol><symbol id="icon-facebook" viewBox="0 0 32 32"><path d="M21.329 5.313h2.921V.225C23.746.156 22.013 0 19.994 0c-4.212 0-7.097 2.649-7.097 7.519V12H8.249v5.688h4.648V32h5.699V17.689h4.46l.708-5.688h-5.169V8.082c.001-1.644.444-2.769 2.735-2.769z"/></symbol><symbol id="icon-github" viewBox="0 0 32 32"><path d="M16 .395c-8.836 0-16 7.163-16 16 0 7.069 4.585 13.067 10.942 15.182.8.148 1.094-.347 1.094-.77 0-.381-.015-1.642-.022-2.979-4.452.968-5.391-1.888-5.391-1.888-.728-1.849-1.776-2.341-1.776-2.341-1.452-.993.11-.973.11-.973 1.606.113 2.452 1.649 2.452 1.649 1.427 2.446 3.743 1.739 4.656 1.33.143-1.034.558-1.74 1.016-2.14-3.554-.404-7.29-1.777-7.29-7.907 0-1.747.625-3.174 1.649-4.295-.166-.403-.714-2.03.155-4.234 0 0 1.344-.43 4.401 1.64a15.353 15.353 0 0 1 4.005-.539c1.359.006 2.729.184 4.008.539 3.054-2.07 4.395-1.64 4.395-1.64.871 2.204.323 3.831.157 4.234 1.026 1.12 1.647 2.548 1.647 4.295 0 6.145-3.743 7.498-7.306 7.895.574.497 1.085 1.47 1.085 2.963 0 2.141-.019 3.864-.019 4.391 0 .426.288.925 1.099.768C27.421 29.457 32 23.462 32 16.395c0-8.837-7.164-16-16-16z"/></symbol><symbol id="moon-svgrepo-com-2" viewBox="0 0 32 32"><path d="M8.832 23.611a11.635 11.635 0 0 0 8.281 3.431c3.126 0 6.064-1.217 8.274-3.427a11.806 11.806 0 0 0 1.537-1.893.64.64 0 0 0-.595-.987l-.247.023a.613.613 0 0 0-.073.011c-.012.003-1.196.247-2.872.247-2.532 0-6.096-.545-8.694-3.143-4.346-4.346-2.795-11.594-2.779-11.667a.64.64 0 0 0-.978-.673c-.656.433-1.278.942-1.849 1.513a11.646 11.646 0 0 0-3.433 8.282 11.627 11.627 0 0 0 3.427 8.284zm.91-15.661c.14-.14.285-.277.432-.409-.252 2.577-.202 7.671 3.363 11.236 2.908 2.908 6.825 3.518 9.599 3.518.7 0 1.317-.039 1.815-.087a10.355 10.355 0 0 1-7.838 3.553c-2.786 0-5.405-1.085-7.376-3.056s-3.053-4.59-3.052-7.378A10.375 10.375 0 0 1 9.743 7.95z"/></symbol><symbol id="sun-max-svgrepo-com" viewBox="0 0 32 32"><path d="M17.165 2.634c0-.63-.536-1.165-1.165-1.165s-1.165.536-1.165 1.165v2.812c0 .63.536 1.165 1.165 1.165s1.165-.536 1.165-1.165zm5.451 5.103c-.442.455-.442 1.205 0 1.647a1.169 1.169 0 0 0 1.661 0l1.996-1.996a1.18 1.18 0 0 0 0-1.661c-.442-.442-1.192-.442-1.647 0zM7.723 9.384a1.164 1.164 0 0 0 1.647 0c.442-.429.442-1.205.013-1.647L7.387 5.728c-.429-.429-1.192-.442-1.647 0a1.202 1.202 0 0 0-.013 1.647zM16 9.17c-3.737 0-6.83 3.094-6.83 6.83s3.094 6.844 6.83 6.844c3.723 0 6.817-3.107 6.817-6.844S19.723 9.17 16 9.17zm0 2.049c2.612 0 4.781 2.17 4.781 4.781s-2.17 4.795-4.781 4.795c-2.625 0-4.795-2.183-4.795-4.795s2.17-4.781 4.795-4.781zm13.326 5.946c.63 0 1.165-.536 1.165-1.165s-.536-1.165-1.165-1.165h-2.799c-.63 0-1.165.536-1.165 1.165s.536 1.165 1.165 1.165zm-26.652-2.33c-.629 0-1.165.536-1.165 1.165s.536 1.165 1.165 1.165h2.799c.63 0 1.165-.536 1.165-1.165s-.536-1.165-1.165-1.165zm21.589 7.795a1.189 1.189 0 0 0-1.647 0c-.442.442-.442 1.192 0 1.647l2.009 2.009a1.189 1.189 0 0 0 1.647-.013 1.162 1.162 0 0 0 0-1.647zM5.728 24.612c-.455.442-.455 1.205-.013 1.647s1.205.455 1.661.013l1.996-1.996c.442-.442.442-1.192.013-1.647-.442-.442-1.205-.442-1.661 0zm11.437 1.942c0-.629-.536-1.165-1.165-1.165s-1.165.536-1.165 1.165v2.813c0 .63.536 1.165 1.165 1.165s1.165-.536 1.165-1.165z"/></symbol></defs></svg>